<svg width="41" height="40" viewBox="0 0 41 40" fill="none" xmlns="http://www.w3.org/2000/svg">
<path d="M31.4999 13.92C31.4999 20.359 26.4999 21.359 26.4999 27.36C26.4999 30.458 23.3769 30.719 20.9999 30.719C18.9469 30.719 14.4139 29.94 14.4139 27.358C14.4139 21.36 9.49994 20.36 9.49994 13.92C9.49994 7.889 14.7849 3 20.5829 3C26.3829 3 31.4999 7.889 31.4999 13.92Z" fill="#FFD983"/>
<path d="M24.6669 35.36C24.6669 36.188 22.4329 37.86 20.4999 37.86C18.5669 37.86 16.3329 36.188 16.3329 35.36C16.3329 34.532 18.5659 34.86 20.4999 34.86C22.4329 34.86 24.6669 34.532 24.6669 35.36Z" fill="#CCD6DD"/>
<path d="M25.2069 13.153C24.8159 12.762 24.1839 12.762 23.7929 13.153L20.4999 16.446L17.2069 13.153C16.8159 12.762 16.1839 12.762 15.7929 13.153C15.4019 13.544 15.4019 14.176 15.7929 14.567L19.4999 18.274V28.86C19.4999 29.413 19.9479 29.86 20.4999 29.86C21.0519 29.86 21.4999 29.413 21.4999 28.86V18.274L25.2069 14.567C25.5979 14.176 25.5979 13.544 25.2069 13.153Z" fill="#FFCC4D"/>
<path d="M26.4999 33.86C26.4999 34.964 25.6039 35.86 24.4999 35.86H16.4999C15.3959 35.86 14.4999 34.964 14.4999 33.86V27.86H26.4999V33.86Z" fill="#99AAB5"/>
<path d="M14.4989 34.86C14.0189 34.86 13.5949 34.513 13.5139 34.024C13.4229 33.48 13.7909 32.964 14.3359 32.874L26.3359 30.874C26.8799 30.776 27.3959 31.151 27.4859 31.696C27.5769 32.24 27.2089 32.756 26.6639 32.846L14.6639 34.846C14.6089 34.856 14.5529 34.86 14.4989 34.86ZM14.4989 30.86C14.0189 30.86 13.5949 30.513 13.5139 30.024C13.4229 29.48 13.7909 28.964 14.3359 28.874L26.3359 26.874C26.8799 26.777 27.3959 27.151 27.4859 27.696C27.5769 28.24 27.2089 28.756 26.6639 28.846L14.6639 30.846C14.6089 30.856 14.5529 30.86 14.4989 30.86Z" fill="#CCD6DD"/>
</svg>
